<svg xmlns="http://www.w3.org/2000/svg" width="256" height="256" viewBox="0 0 100 100"><rect width="100" height="100" rx="20" fill="#221e38"></rect><path fill="#fff" d="M26.23 39.48L26.23 39.48Q26.78 39.20 27.57 38.99Q28.37 38.79 29.33 38.79L29.33 38.79Q32.23 38.79 32.85 40.58L32.85 40.58Q34.10 44.31 35.20 47.62Q36.30 50.93 37.34 54.00Q38.37 57.07 39.34 60.04Q40.31 63.01 41.27 66.18L41.27 66.18L41.55 66.18Q42.51 61.56 43.48 57.11Q44.45 52.66 45.34 48.14Q46.24 43.62 47.07 38.96Q47.90 34.30 48.65 29.13L48.65 29.13Q49.62 28.64 51.00 28.64L51.00 28.64Q52.31 28.64 53.07 29.23Q53.83 29.82 53.83 30.99L53.83 30.99Q53.83 32.30 53.45 34.99Q53.07 37.68 52.41 41.17Q51.76 44.65 50.90 48.69Q50.03 52.73 49.07 56.62Q48.10 60.52 47.14 64.11Q46.17 67.70 45.27 70.25L45.27 70.25Q44.65 70.60 43.69 70.91Q42.72 71.22 41.48 71.22L41.48 71.22Q39.96 71.22 38.93 70.73Q37.89 70.25 37.55 69.42L37.55 69.42Q36.79 67.63 35.82 64.90Q34.85 62.18 33.78 58.90Q32.72 55.62 31.61 52.07Q30.51 48.52 29.47 45.00L29.47 45.00Q28.44 48.45 27.33 52.10Q26.23 55.76 25.16 59.18Q24.09 62.59 23.06 65.49Q22.02 68.39 21.19 70.32L21.19 70.32Q20.64 70.67 19.67 70.94Q18.71 71.22 17.47 71.22L17.47 71.22Q15.88 71.22 14.91 70.70Q13.95 70.18 13.60 69.42L13.60 69.42Q12.98 67.97 12.19 65.28Q11.39 62.59 10.53 59.18Q9.67 55.76 8.74 51.83Q7.81 47.90 6.94 44.00Q6.08 40.10 5.36 36.48Q4.63 32.85 4.15 29.96L4.15 29.96Q4.63 29.47 5.46 29.06Q6.29 28.64 7.25 28.64L7.25 28.64Q9.67 28.64 10.15 31.20L10.15 31.20Q11.05 35.54 11.88 39.58Q12.71 43.62 13.57 47.79Q14.43 51.97 15.40 56.45Q16.36 60.94 17.54 66.18L17.54 66.18L17.81 66.18Q18.78 63.08 19.67 60.28Q20.57 57.49 21.54 54.45Q22.50 51.41 23.64 47.83Q24.78 44.24 26.23 39.48ZM95.85 70.87L95.85 70.87Q95.44 71.01 94.75 71.18Q94.06 71.36 93.23 71.36L93.23 71.36Q90.19 71.36 90.19 68.80L90.19 68.80L90.19 52.10L68.66 52.10L68.66 70.87Q68.25 71.01 67.56 71.18Q66.87 71.36 66.04 71.36L66.04 71.36Q63.01 71.36 63.01 68.80L63.01 68.80L63.01 29.20Q63.35 29.06 64.08 28.89Q64.80 28.71 65.63 28.71L65.63 28.71Q68.66 28.71 68.66 31.27L68.66 31.27L68.66 47.41L90.19 47.41L90.19 29.20Q90.54 29.06 91.26 28.89Q91.99 28.71 92.81 28.71L92.81 28.71Q95.85 28.71 95.85 31.27L95.85 31.27L95.85 70.87Z"></path></svg>